<svg width="23" height="25" viewBox="0 0 23 25" fill="none" xmlns="http://www.w3.org/2000/svg">
<path d="M2.37695 5.26413C2.37695 4.735 2.56973 4.22754 2.91289 3.85339C3.25604 3.47924 3.72145 3.26904 4.20674 3.26904H9.6961V21.2248H4.20674C3.72145 21.2248 3.25604 21.0146 2.91289 20.6405C2.56973 20.2663 2.37695 19.7588 2.37695 19.2297V5.26413ZM13.3557 3.26904H18.845C19.3303 3.26904 19.7957 3.47924 20.1389 3.85339C20.482 4.22754 20.6748 4.735 20.6748 5.26413V10.2518H13.3557V3.26904ZM13.3557 14.242H20.6748V19.2297C20.6748 19.7588 20.482 20.2663 20.1389 20.6405C19.7957 21.0146 19.3303 21.2248 18.845 21.2248H13.3557V14.242Z" stroke="black" stroke-width="2" stroke-linecap="round" stroke-linejoin="round"/>
</svg>
